<?xml version="1.0" encoding="utf-8"?>
<!-- Generator: Adobe Illustrator 16.0.0, SVG Export Plug-In . SVG Version: 6.00 Build 0)  -->
<!DOCTYPE svg PUBLIC "-//W3C//DTD SVG 1.1//EN" "http://www.w3.org/Graphics/SVG/1.1/DTD/svg11.dtd">
<svg version="1.1" id="레이어_1" xmlns="http://www.w3.org/2000/svg" xmlns:xlink="http://www.w3.org/1999/xlink" x="0px"
	 y="0px" width="106.82px" height="18.8px" viewBox="0 0 106.82 18.8" enable-background="new 0 0 106.82 18.8"
	 xml:space="preserve">
<g>
	<path d="M48.136,8.562c-0.06,1.077-0.286,1.909-0.679,2.496s-0.892,0.88-1.497,0.88c-0.636,0-1.155-0.334-1.559-1.004
		c-0.404-0.669-0.605-1.598-0.605-2.787c0-0.583,0.052-1.11,0.157-1.582c0.104-0.471,0.25-0.871,0.437-1.2
		c0.194-0.329,0.424-0.582,0.69-0.757c0.265-0.175,0.559-0.264,0.88-0.264c0.576,0,1.054,0.271,1.436,0.813s0.617,1.284,0.707,2.226
		h1.021V5.657c0-0.247-0.004-0.495-0.011-0.746c-0.008-0.25-0.019-0.502-0.034-0.757h1.256C50.312,4.409,50.3,4.661,50.3,4.911
		c0,0.251,0,0.499,0,0.746v6.37c0,0.254,0,0.507,0,0.757s0.011,0.499,0.034,0.746h-1.256c0.015-0.247,0.026-0.495,0.034-0.746
		c0.007-0.25,0.011-0.503,0.011-0.757V8.562H48.136z M45.018,9.201c0.045,0.329,0.108,0.613,0.191,0.852
		c0.09,0.239,0.198,0.426,0.325,0.561c0.127,0.135,0.273,0.202,0.438,0.202c0.157,0,0.297-0.067,0.42-0.202
		c0.124-0.134,0.23-0.321,0.32-0.561c0.089-0.239,0.159-0.523,0.208-0.852c0.048-0.329,0.073-0.685,0.073-1.065
		c0-0.381-0.024-0.735-0.073-1.06c-0.049-0.325-0.118-0.607-0.208-0.847c-0.09-0.239-0.196-0.428-0.32-0.566
		c-0.124-0.138-0.264-0.208-0.42-0.208c-0.165,0-0.311,0.069-0.438,0.208c-0.127,0.139-0.232,0.327-0.314,0.566
		c-0.09,0.239-0.157,0.521-0.202,0.847c-0.044,0.325-0.067,0.679-0.067,1.06C44.951,8.517,44.974,8.872,45.018,9.201z
		 M52.257,13.255c0.004,0.25,0.017,0.499,0.04,0.746h-1.245c0.022-0.247,0.038-0.496,0.045-0.746s0.011-0.503,0.011-0.757V5.489
		c0-0.247-0.004-0.495-0.011-0.746s-0.022-0.503-0.045-0.757h1.245c-0.022,0.254-0.036,0.506-0.04,0.757s-0.005,0.499-0.005,0.746
		v7.009C52.252,12.752,52.253,13.004,52.257,13.255z"/>
	<path d="M56.76,10.255c0-0.157-0.002-0.321-0.006-0.493s-0.017-0.336-0.039-0.494h1.323C58.016,9.418,58.003,9.584,58,9.767
		c-0.004,0.184-0.006,0.346-0.006,0.488v1.582h3.208c0.292,0,0.578-0.002,0.858-0.006c0.28-0.003,0.566-0.017,0.858-0.039v1.144
		c-0.292-0.022-0.578-0.036-0.858-0.04s-0.566-0.005-0.858-0.005h-5.944c-0.292,0-0.578,0.001-0.858,0.005s-0.566,0.017-0.858,0.04
		v-1.144c0.292,0.022,0.578,0.036,0.858,0.039c0.28,0.004,0.566,0.006,0.858,0.006h1.503V10.255z M55.229,5.573
		c-0.191,0.004-0.402,0.017-0.634,0.04V4.491c0.231,0.022,0.443,0.036,0.634,0.039c0.19,0.004,0.405,0.006,0.645,0.006h5.933
		c-0.022,0.426-0.054,0.894-0.095,1.402s-0.092,1.032-0.151,1.57c-0.067,0.531-0.139,1.058-0.213,1.582
		c-0.075,0.523-0.153,1.009-0.236,1.458h-1.188c0.03-0.157,0.062-0.346,0.095-0.566s0.069-0.447,0.106-0.679
		c0.03-0.231,0.062-0.461,0.095-0.689s0.062-0.432,0.084-0.611c-0.486,0.045-1.054,0.075-1.705,0.09
		c-0.65,0.015-1.274,0.026-1.873,0.034s-1.116,0.009-1.553,0.005c-0.438-0.003-0.679-0.005-0.724-0.005V7.082
		c0.022,0,0.105,0.002,0.247,0.005c0.142,0.004,0.321,0.002,0.538-0.005c0.224,0,0.479,0,0.763,0s0.583-0.004,0.897-0.011
		c0.314,0,0.634-0.004,0.959-0.011s0.645-0.015,0.959-0.022c0.307-0.007,0.598-0.017,0.875-0.028c0.277-0.011,0.52-0.028,0.729-0.05
		c0.022-0.224,0.043-0.458,0.062-0.701c0.019-0.243,0.032-0.473,0.039-0.689h-4.643C55.635,5.567,55.42,5.569,55.229,5.573z"/>
	<path d="M71.294,11.69c0.292,0,0.578-0.001,0.858-0.005s0.566-0.017,0.858-0.04v1.133c-0.292-0.022-0.578-0.036-0.858-0.039
		c-0.28-0.004-0.566-0.006-0.858-0.006h-5.944c-0.292,0-0.578,0.002-0.858,0.006c-0.28,0.003-0.566,0.017-0.858,0.039v-1.133
		c0.292,0.022,0.578,0.036,0.858,0.04s0.566,0.005,0.858,0.005h4.239c0.134-0.403,0.265-0.858,0.393-1.362
		c0.127-0.505,0.239-1.022,0.336-1.553s0.177-1.058,0.241-1.582c0.063-0.523,0.095-1.005,0.095-1.447H65.9
		c-0.239,0-0.454,0.002-0.645,0.006c-0.191,0.004-0.402,0.017-0.634,0.039V4.648c0.232,0.022,0.443,0.035,0.634,0.039
		c0.19,0.004,0.405,0.005,0.645,0.005h6.011c-0.007,0.628-0.045,1.262-0.112,1.901c-0.067,0.639-0.15,1.261-0.247,1.867
		c-0.104,0.605-0.221,1.183-0.348,1.732c-0.127,0.55-0.258,1.049-0.393,1.497H71.294z"/>
	<path d="M78.124,8.606h-2.489v1.974l1.021-0.011c0.172,0,0.357-0.006,0.555-0.017c0.198-0.011,0.395-0.024,0.589-0.039
		c0.187-0.022,0.365-0.045,0.533-0.067c0.168-0.022,0.305-0.045,0.41-0.067v1.021c-0.105,0.015-0.243,0.036-0.415,0.062
		c-0.172,0.026-0.367,0.05-0.583,0.073c-0.224,0.022-0.467,0.043-0.729,0.062c-0.262,0.019-0.539,0.028-0.83,0.028l-1.738,0.011
		v-4.06h2.49V5.59h-1.716c-0.142,0-0.273,0.002-0.393,0.005c-0.12,0.004-0.247,0.017-0.381,0.04V4.491
		c0.135,0.022,0.262,0.036,0.381,0.039c0.12,0.004,0.25,0.006,0.393,0.006h2.949c-0.022,0.172-0.036,0.334-0.039,0.488
		c-0.004,0.153-0.006,0.313-0.006,0.477V8.606z M81.32,7.373V5.489c0-0.247-0.004-0.495-0.011-0.746s-0.022-0.503-0.045-0.757h1.245
		c-0.022,0.254-0.036,0.506-0.04,0.757s-0.005,0.499-0.005,0.746v7.009c0,0.254,0.001,0.506,0.005,0.757s0.017,0.499,0.04,0.746
		h-1.245c0.022-0.247,0.038-0.496,0.045-0.746s0.011-0.503,0.011-0.757V8.584h-1.032v3.443c0,0.254,0,0.507,0,0.757
		s0.011,0.499,0.034,0.746h-1.245c0.015-0.247,0.026-0.495,0.034-0.746c0.007-0.25,0.011-0.503,0.011-0.757v-6.37
		c0-0.247-0.003-0.495-0.011-0.746c-0.008-0.25-0.019-0.502-0.034-0.757h1.245c-0.022,0.254-0.034,0.507-0.034,0.757
		c0,0.251,0,0.499,0,0.746v1.716H81.32z"/>
	<path d="M89.995,8.197c0.265-0.026,0.488-0.054,0.667-0.084v1.032c-0.269,0.052-0.605,0.093-1.009,0.123
		c-0.404,0.03-0.845,0.056-1.323,0.079c-0.479,0.015-0.981,0.026-1.508,0.034c-0.527,0.007-1.045,0.011-1.553,0.011
		c-0.202,0-0.389,0.002-0.561,0.005c-0.172,0.004-0.359,0.017-0.561,0.04V8.315c0.202,0.022,0.389,0.034,0.561,0.034
		c0.172,0,0.359,0,0.561,0h0.011l-0.034-2.916c-0.157,0-0.297,0.002-0.42,0.006c-0.124,0.004-0.264,0.017-0.421,0.039V4.345
		c0.157,0.022,0.303,0.036,0.438,0.04S85.125,4.39,85.29,4.39h3.925c0.157,0,0.303-0.001,0.438-0.005
		c0.135-0.004,0.284-0.017,0.449-0.04v1.133c-0.165-0.022-0.314-0.035-0.449-0.039c-0.134-0.004-0.28-0.006-0.438-0.006H89.17
		L89.137,8.27C89.443,8.248,89.729,8.224,89.995,8.197z M92.568,13.53c0.007,0.18,0.022,0.352,0.045,0.516h-1.313
		c0.022-0.157,0.036-0.329,0.04-0.516c0.003-0.187,0.005-0.363,0.005-0.527v-1.48h-4.586c-0.225,0-0.43,0.002-0.617,0.005
		c-0.187,0.004-0.393,0.017-0.617,0.04v-1.133c0.224,0.022,0.43,0.034,0.617,0.034s0.393,0,0.617,0h5.843
		c-0.022,0.149-0.036,0.293-0.04,0.432c-0.004,0.139-0.005,0.279-0.005,0.42v1.683C92.557,13.175,92.561,13.351,92.568,13.53z
		 M88.004,5.433H86.4l0.033,2.905h0.539c0.052,0,0.116,0,0.19,0s0.153,0,0.236,0c0.089,0,0.181-0.002,0.274-0.005
		c0.094-0.004,0.192-0.006,0.297-0.006L88.004,5.433z M92.557,10.031h-1.211V5.119c0-0.187-0.004-0.374-0.011-0.561
		s-0.022-0.377-0.044-0.572h1.312c-0.022,0.194-0.036,0.385-0.04,0.572s-0.005,0.374-0.005,0.561V10.031z"/>
	<path d="M95.63,12.767c-0.292,0-0.578,0.002-0.858,0.006c-0.28,0.003-0.566,0.017-0.858,0.039v-1.144
		c0.292,0.022,0.578,0.036,0.858,0.04s0.566,0.005,0.858,0.005h5.944c0.291,0,0.578-0.001,0.857-0.005
		c0.281-0.004,0.566-0.017,0.859-0.04v1.144c-0.293-0.022-0.578-0.036-0.859-0.039c-0.279-0.004-0.566-0.006-0.857-0.006H95.63z
		 M99.572,6.521c0.213,0.396,0.492,0.763,0.835,1.099c0.336,0.336,0.725,0.628,1.167,0.875c0.441,0.247,0.889,0.426,1.346,0.538
		c-0.15,0.149-0.297,0.305-0.443,0.465c-0.145,0.161-0.268,0.305-0.363,0.432c-0.314-0.097-0.645-0.235-0.988-0.415
		c-0.344-0.18-0.677-0.393-0.998-0.64c-0.321-0.247-0.617-0.518-0.886-0.813c-0.27-0.295-0.486-0.607-0.65-0.937
		c-0.157,0.314-0.35,0.606-0.578,0.875c-0.229,0.269-0.48,0.516-0.757,0.74c-0.321,0.269-0.666,0.504-1.032,0.707
		c-0.366,0.202-0.74,0.366-1.121,0.493c-0.112-0.119-0.241-0.259-0.387-0.42C94.57,9.36,94.411,9.19,94.239,9.01
		c0.494-0.135,0.962-0.321,1.408-0.561c0.444-0.239,0.835-0.523,1.172-0.853c0.336-0.321,0.607-0.676,0.813-1.065
		c0.206-0.389,0.308-0.815,0.308-1.278c0-0.142-0.003-0.295-0.011-0.46c-0.007-0.164-0.019-0.321-0.033-0.471h1.402
		c-0.022,0.142-0.036,0.299-0.04,0.471c-0.004,0.172-0.005,0.325-0.005,0.46C99.252,5.702,99.359,6.125,99.572,6.521z"/>
</g>
<g>
	<path fill="#1B61AE" d="M0,16.567V2.931h9.798l0.02,2.493h-7.11v2.941l6.74,0.02v2.454h-6.74v3.253h7.246l0.02,2.493L0,16.567z"/>
	<path fill="#1B61AE" d="M23.434,11.755c-0.247,1.182-0.874,2.34-1.88,3.477c-1.006,1.137-2.419,1.705-4.237,1.705
		c-1.961,0-3.506-0.672-4.636-2.016c-1.13-1.344-1.695-3.081-1.695-5.211c0-2.117,0.565-3.837,1.695-5.162
		c1.13-1.324,2.675-1.987,4.636-1.987c1.922,0,3.367,0.575,4.334,1.724c0.968,1.149,1.549,2.244,1.744,3.283l-2.883-0.02
		c-0.156-0.572-0.474-1.13-0.954-1.675c-0.481-0.545-1.195-0.818-2.143-0.818c-1.117,0-1.997,0.426-2.64,1.276
		c-0.643,0.851-0.964,1.977-0.964,3.379s0.321,2.542,0.964,3.418c0.643,0.876,1.523,1.315,2.64,1.315
		c0.909,0,1.62-0.292,2.133-0.877c0.513-0.584,0.86-1.182,1.042-1.792L23.434,11.755z"/>
	<path fill="#1B61AE" d="M35.248,4.548c1.163,1.325,1.744,3.045,1.744,5.162c0,2.13-0.581,3.867-1.744,5.211
		c-1.162,1.344-2.71,2.016-4.646,2.016s-3.478-0.672-4.626-2.016c-1.149-1.344-1.724-3.081-1.724-5.211
		c0-2.117,0.575-3.837,1.724-5.162c1.149-1.324,2.691-1.987,4.626-1.987S34.086,3.224,35.248,4.548z M33.147,13.011
		c0.624-0.864,0.937-1.963,0.937-3.3c0-1.324-0.313-2.408-0.937-3.253c-0.624-0.844-1.472-1.267-2.543-1.267
		c-1.072,0-1.907,0.423-2.505,1.267c-0.599,0.845-0.899,1.929-0.899,3.253c0,1.337,0.3,2.437,0.899,3.3
		c0.598,0.863,1.433,1.296,2.505,1.296C31.675,14.307,32.523,13.875,33.147,13.011z"/>
	<g>
		<defs>
			<path id="SVGID_1_" d="M35.248,4.548c1.163,1.325,1.744,3.045,1.744,5.162c0,2.13-0.581,3.867-1.744,5.211
				c-1.162,1.344-2.71,2.016-4.646,2.016s-3.478-0.672-4.626-2.016c-1.149-1.344-1.724-3.081-1.724-5.211
				c0-2.117,0.575-3.837,1.724-5.162c1.149-1.324,2.691-1.987,4.626-1.987S34.086,3.224,35.248,4.548z M33.147,13.011
				c0.624-0.864,0.937-1.963,0.937-3.3c0-1.324-0.313-2.408-0.937-3.253c-0.624-0.844-1.472-1.267-2.543-1.267
				c-1.072,0-1.907,0.423-2.505,1.267c-0.599,0.845-0.899,1.929-0.899,3.253c0,1.337,0.3,2.437,0.899,3.3
				c0.598,0.863,1.433,1.296,2.505,1.296C31.675,14.307,32.523,13.875,33.147,13.011z"/>
		</defs>
		<clipPath id="SVGID_2_">
			<use xlink:href="#SVGID_1_"  overflow="visible"/>
		</clipPath>
		
			<linearGradient id="SVGID_3_" gradientUnits="userSpaceOnUse" x1="0.9487" y1="5.3711" x2="48.6719" y2="5.3711" gradientTransform="matrix(-0.998 -0.0635 0.0635 -0.998 37.8671 9.1536)">
			<stop  offset="0" style="stop-color:#FFFFFF"/>
			<stop  offset="0.0584" style="stop-color:#ECF5FB"/>
			<stop  offset="0.2326" style="stop-color:#B9DBF0"/>
			<stop  offset="0.4041" style="stop-color:#8FC4E7"/>
			<stop  offset="0.5697" style="stop-color:#6EB3E0"/>
			<stop  offset="0.7275" style="stop-color:#56A7DB"/>
			<stop  offset="0.8746" style="stop-color:#48A0D8"/>
			<stop  offset="1" style="stop-color:#439DD7"/>
		</linearGradient>
		<path opacity="0.2" clip-path="url(#SVGID_2_)" fill="url(#SVGID_3_)" d="M-10.518,3.083c0,0,28.593-15.266,42.394-2.42
			c13.801,12.846-4.696,9.203-4.696,9.203L-10.518,3.083z"/>
	</g>
	<g>
		<defs>
			<path id="SVGID_4_" d="M23.434,11.755c-0.247,1.182-0.874,2.34-1.88,3.477c-1.006,1.137-2.419,1.705-4.237,1.705
				c-1.961,0-3.506-0.672-4.636-2.016c-1.13-1.344-1.695-3.081-1.695-5.211c0-2.117,0.565-3.837,1.695-5.162
				c1.13-1.324,2.675-1.987,4.636-1.987c1.922,0,3.367,0.575,4.334,1.724c0.968,1.149,1.549,2.244,1.744,3.283l-2.883-0.02
				c-0.156-0.572-0.474-1.13-0.954-1.675c-0.481-0.545-1.195-0.818-2.143-0.818c-1.117,0-1.997,0.426-2.64,1.276
				c-0.643,0.851-0.964,1.977-0.964,3.379s0.321,2.542,0.964,3.418c0.643,0.876,1.523,1.315,2.64,1.315
				c0.909,0,1.62-0.292,2.133-0.877c0.513-0.584,0.86-1.182,1.042-1.792L23.434,11.755z"/>
		</defs>
		<clipPath id="SVGID_5_">
			<use xlink:href="#SVGID_4_"  overflow="visible"/>
		</clipPath>
		
			<linearGradient id="SVGID_6_" gradientUnits="userSpaceOnUse" x1="0.9487" y1="5.3711" x2="48.6719" y2="5.3711" gradientTransform="matrix(-0.998 -0.0635 0.0635 -0.998 37.8671 9.1536)">
			<stop  offset="0" style="stop-color:#FFFFFF"/>
			<stop  offset="0.0584" style="stop-color:#ECF5FB"/>
			<stop  offset="0.2326" style="stop-color:#B9DBF0"/>
			<stop  offset="0.4041" style="stop-color:#8FC4E7"/>
			<stop  offset="0.5697" style="stop-color:#6EB3E0"/>
			<stop  offset="0.7275" style="stop-color:#56A7DB"/>
			<stop  offset="0.8746" style="stop-color:#48A0D8"/>
			<stop  offset="1" style="stop-color:#439DD7"/>
		</linearGradient>
		<path opacity="0.2" clip-path="url(#SVGID_5_)" fill="url(#SVGID_6_)" d="M-10.518,3.083c0,0,28.593-15.266,42.394-2.42
			c13.801,12.846-4.696,9.203-4.696,9.203L-10.518,3.083z"/>
	</g>
	<g>
		<defs>
			<path id="SVGID_7_" d="M0,16.567V2.931h9.798l0.02,2.493h-7.11v2.941l6.74,0.02v2.454h-6.74v3.253h7.246l0.02,2.493L0,16.567z"/>
		</defs>
		<clipPath id="SVGID_8_">
			<use xlink:href="#SVGID_7_"  overflow="visible"/>
		</clipPath>
		
			<linearGradient id="SVGID_9_" gradientUnits="userSpaceOnUse" x1="0.9487" y1="5.3711" x2="48.6719" y2="5.3711" gradientTransform="matrix(-0.998 -0.0635 0.0635 -0.998 37.8671 9.1536)">
			<stop  offset="0" style="stop-color:#FFFFFF"/>
			<stop  offset="0.0584" style="stop-color:#ECF5FB"/>
			<stop  offset="0.2326" style="stop-color:#B9DBF0"/>
			<stop  offset="0.4041" style="stop-color:#8FC4E7"/>
			<stop  offset="0.5697" style="stop-color:#6EB3E0"/>
			<stop  offset="0.7275" style="stop-color:#56A7DB"/>
			<stop  offset="0.8746" style="stop-color:#48A0D8"/>
			<stop  offset="1" style="stop-color:#439DD7"/>
		</linearGradient>
		<path opacity="0.2" clip-path="url(#SVGID_8_)" fill="url(#SVGID_9_)" d="M-10.518,3.083c0,0,28.593-15.266,42.394-2.42
			c13.801,12.846-4.696,9.203-4.696,9.203L-10.518,3.083z"/>
	</g>
</g>
<rect x="40.586" y="0.9" fill="none" stroke="#025EA2" stroke-width="0.3" stroke-miterlimit="10" width="65.333" height="17"/>
<g>
	<rect x="39.835" y="0.15" fill="none" stroke="#025EA2" stroke-width="0.3" stroke-miterlimit="10" width="1.5" height="1.5"/>
	<rect x="39.835" y="17.149" fill="none" stroke="#025EA2" stroke-width="0.3" stroke-miterlimit="10" width="1.5" height="1.5"/>
</g>
<g>
	<rect x="72.502" y="0.15" fill="none" stroke="#025EA2" stroke-width="0.3" stroke-miterlimit="10" width="1.5" height="1.5"/>
	<rect x="72.502" y="17.149" fill="none" stroke="#025EA2" stroke-width="0.3" stroke-miterlimit="10" width="1.5" height="1.5"/>
</g>
<g>
	<rect x="105.169" y="0.15" fill="none" stroke="#025EA2" stroke-width="0.3" stroke-miterlimit="10" width="1.5" height="1.5"/>
	<rect x="105.169" y="17.149" fill="none" stroke="#025EA2" stroke-width="0.3" stroke-miterlimit="10" width="1.5" height="1.5"/>
</g>
</svg>
