<?xml version="1.0" encoding="utf-8"?>
<!-- Generator: Adobe Illustrator 16.0.0, SVG Export Plug-In . SVG Version: 6.00 Build 0)  -->
<!DOCTYPE svg PUBLIC "-//W3C//DTD SVG 1.1//EN" "http://www.w3.org/Graphics/SVG/1.1/DTD/svg11.dtd">
<svg version="1.1" id="레이어_1" xmlns="http://www.w3.org/2000/svg" xmlns:xlink="http://www.w3.org/1999/xlink" x="0px"
	 y="0px" width="257.301px" height="44.895px" viewBox="-74.578 -12.933 257.301 44.895"
	 enable-background="new -74.578 -12.933 257.301 44.895" xml:space="preserve">
<g>
	<path d="M41.464,7.496c-0.147,2.595-0.689,4.603-1.638,6.016c-0.944,1.414-2.146,2.123-3.606,2.123
		c-1.532,0-2.786-0.807-3.757-2.418c-0.975-1.611-1.463-3.853-1.463-6.721c0-1.404,0.127-2.676,0.379-3.811
		c0.254-1.137,0.603-2.1,1.056-2.89c0.47-0.793,1.023-1.402,1.663-1.828c0.64-0.421,1.344-0.635,2.123-0.635
		c1.389,0,2.542,0.65,3.46,1.96c0.918,1.307,1.488,3.095,1.704,5.367h2.46V0.494c0-0.595-0.01-1.193-0.028-1.797
		c-0.021-0.605-0.046-1.214-0.082-1.825h3.028c-0.054,0.611-0.082,1.22-0.082,1.825c0,0.604,0,1.205,0,1.797v15.354
		c0,0.614,0,1.224,0,1.827c0,0.605,0.028,1.203,0.082,1.799h-3.028c0.038-0.596,0.061-1.193,0.082-1.799
		c0.017-0.602,0.028-1.21,0.028-1.827V7.496H41.464z M33.948,9.035c0.107,0.793,0.26,1.478,0.46,2.053
		c0.217,0.577,0.479,1.027,0.786,1.352c0.305,0.325,0.656,0.488,1.053,0.488c0.379,0,0.714-0.163,1.011-0.488
		c0.298-0.324,0.556-0.774,0.772-1.352c0.216-0.575,0.384-1.26,0.5-2.053c0.116-0.793,0.177-1.649,0.177-2.567
		s-0.061-1.771-0.177-2.555c-0.116-0.786-0.284-1.465-0.5-2.04c-0.216-0.577-0.47-1.035-0.772-1.367
		c-0.297-0.335-0.634-0.5-1.011-0.5c-0.397,0-0.746,0.165-1.053,0.5c-0.307,0.333-0.561,0.791-0.758,1.367
		c-0.216,0.575-0.378,1.253-0.488,2.04c-0.107,0.784-0.163,1.637-0.163,2.555S33.841,8.242,33.948,9.035z M51.399,18.807
		c0.007,0.604,0.04,1.201,0.096,1.797h-3c0.054-0.596,0.091-1.193,0.107-1.797c0.017-0.604,0.026-1.213,0.026-1.824V0.088
		c0-0.596-0.01-1.193-0.026-1.8c-0.019-0.603-0.053-1.211-0.107-1.825h3c-0.054,0.611-0.086,1.221-0.096,1.825
		c-0.009,0.606-0.011,1.204-0.011,1.8v16.896C51.388,17.597,51.39,18.204,51.399,18.807z"/>
	<path d="M62.254,11.577c0-0.377-0.005-0.774-0.014-1.189c-0.009-0.417-0.039-0.813-0.095-1.191h3.188
		c-0.051,0.362-0.083,0.763-0.091,1.202c-0.012,0.444-0.016,0.835-0.016,1.177v3.813h7.731c0.702,0,1.391-0.005,2.07-0.015
		c0.677-0.008,1.364-0.043,2.066-0.096v2.757c-0.702-0.055-1.39-0.085-2.066-0.096c-0.677-0.01-1.366-0.012-2.07-0.012H58.629
		c-0.702,0-1.39,0.002-2.068,0.012c-0.677,0.011-1.366,0.041-2.07,0.096v-2.757c0.702,0.053,1.394,0.088,2.07,0.096
		c0.676,0.01,1.366,0.015,2.068,0.015h3.62v-3.812H62.254z M58.563,0.29c-0.458,0.01-0.969,0.04-1.527,0.095v-2.707
		c0.559,0.056,1.067,0.086,1.527,0.095c0.461,0.01,0.978,0.014,1.557,0.014h14.3c-0.056,1.027-0.129,2.153-0.229,3.378
		c-0.101,1.228-0.224,2.486-0.365,3.789c-0.163,1.276-0.332,2.548-0.515,3.811c-0.181,1.262-0.368,2.434-0.566,3.513h-2.867
		c0.072-0.377,0.15-0.832,0.232-1.363c0.079-0.531,0.165-1.078,0.253-1.636c0.072-0.558,0.152-1.111,0.23-1.662
		c0.081-0.549,0.151-1.04,0.204-1.473c-1.174,0.107-2.541,0.18-4.11,0.214c-1.569,0.038-3.074,0.063-4.514,0.084
		c-1.441,0.017-2.692,0.021-3.743,0.012c-1.057-0.009-1.638-0.012-1.744-0.012V3.925c0.054,0,0.25,0.005,0.595,0.014
		c0.347,0.009,0.777,0.002,1.298-0.014c0.541,0,1.152,0,1.839,0s1.404-0.007,2.166-0.025c0.755,0,1.527-0.007,2.311-0.026
		c0.784-0.019,1.556-0.04,2.312-0.056c0.741-0.019,1.441-0.04,2.11-0.068c0.666-0.025,1.252-0.065,1.756-0.121
		c0.058-0.54,0.104-1.102,0.151-1.688c0.045-0.588,0.077-1.139,0.096-1.665H60.125C59.541,0.276,59.024,0.283,58.563,0.29z"/>
	<path d="M97.293,15.037c0.701,0,1.393-0.005,2.067-0.014c0.677-0.007,1.366-0.04,2.069-0.095v2.729
		c-0.703-0.054-1.393-0.086-2.069-0.096c-0.675-0.01-1.363-0.012-2.067-0.012H82.961c-0.702,0-1.39,0.002-2.068,0.012
		c-0.677,0.007-1.363,0.04-2.068,0.096v-2.729c0.705,0.053,1.392,0.085,2.068,0.095c0.677,0.009,1.364,0.014,2.068,0.014h10.221
		c0.322-0.974,0.642-2.068,0.946-3.283c0.307-1.216,0.574-2.464,0.81-3.746c0.234-1.279,0.428-2.548,0.581-3.811
		c0.151-1.263,0.229-2.425,0.229-3.488H84.284c-0.576,0-1.095,0.005-1.553,0.014c-0.46,0.009-0.969,0.04-1.53,0.095V-1.94
		c0.562,0.056,1.07,0.085,1.53,0.095c0.458,0.01,0.977,0.014,1.553,0.014h14.492c-0.02,1.512-0.11,3.042-0.271,4.581
		c-0.163,1.542-0.361,3.042-0.596,4.504c-0.254,1.458-0.533,2.853-0.84,4.177c-0.305,1.323-0.62,2.526-0.944,3.607h1.168V15.037z"/>
	<path d="M113.758,7.6h-6.003v4.76l2.46-0.027c0.413,0,0.86-0.011,1.337-0.039c0.479-0.029,0.951-0.06,1.421-0.093
		c0.448-0.057,0.876-0.11,1.283-0.163c0.407-0.054,0.734-0.107,0.986-0.163v2.46c-0.252,0.037-0.584,0.086-1,0.151
		c-0.414,0.061-0.884,0.12-1.405,0.175c-0.541,0.054-1.125,0.102-1.756,0.151c-0.632,0.043-1.299,0.066-2.001,0.066l-4.19,0.026
		V5.117h6.005V0.332h-4.138c-0.342,0-0.66,0.004-0.946,0.014c-0.286,0.009-0.596,0.042-0.918,0.095v-2.762
		c0.324,0.056,0.632,0.086,0.918,0.095c0.289,0.01,0.602,0.014,0.946,0.014h7.111c-0.056,0.416-0.086,0.809-0.096,1.177
		c-0.01,0.369-0.015,0.753-0.015,1.148V7.6z M121.463,4.627V0.088c0-0.596-0.01-1.193-0.029-1.8
		c-0.016-0.603-0.053-1.211-0.106-1.825h3.002c-0.054,0.611-0.086,1.221-0.096,1.825c-0.008,0.606-0.013,1.204-0.013,1.8v16.896
		c0,0.611,0.005,1.221,0.013,1.824c0.01,0.604,0.042,1.201,0.096,1.797h-3.002c0.054-0.596,0.091-1.193,0.106-1.797
		c0.02-0.604,0.029-1.213,0.029-1.824V7.55h-2.488v8.297c0,0.614,0,1.223,0,1.827c0,0.605,0.027,1.202,0.083,1.798h-3
		c0.035-0.596,0.062-1.192,0.082-1.798c0.016-0.602,0.025-1.211,0.025-1.827V0.494c0-0.595-0.007-1.193-0.025-1.797
		c-0.021-0.605-0.047-1.214-0.082-1.825h3c-0.056,0.611-0.083,1.22-0.083,1.825c0,0.604,0,1.205,0,1.797v4.135h2.488V4.627z"/>
	<path d="M142.374,6.615c0.64-0.063,1.177-0.13,1.609-0.203v2.486c-0.648,0.128-1.461,0.228-2.433,0.298
		c-0.974,0.072-2.037,0.137-3.192,0.19c-1.151,0.037-2.362,0.065-3.635,0.082c-1.272,0.019-2.521,0.028-3.746,0.028
		c-0.488,0-0.938,0.005-1.354,0.014c-0.413,0.01-0.862,0.042-1.349,0.093V6.901c0.486,0.054,0.936,0.082,1.349,0.082
		c0.416,0,0.865,0,1.354,0h0.025l-0.078-7.03c-0.38,0-0.72,0.002-1.017,0.012c-0.299,0.009-0.637,0.042-1.014,0.095V-2.67
		c0.377,0.054,0.728,0.085,1.054,0.095c0.325,0.009,0.685,0.014,1.08,0.014h9.462c0.379,0,0.73-0.005,1.056-0.014
		c0.324-0.007,0.687-0.042,1.079-0.095v2.729c-0.397-0.053-0.755-0.086-1.079-0.095c-0.325-0.01-0.677-0.012-1.056-0.012h-0.106
		l-0.081,6.841C141.046,6.738,141.732,6.679,142.374,6.615z M148.578,19.471c0.02,0.433,0.054,0.846,0.109,1.242h-3.162
		c0.053-0.377,0.086-0.794,0.096-1.242c0.008-0.45,0.011-0.875,0.011-1.27v-3.57h-11.06c-0.539,0-1.036,0.005-1.488,0.015
		c-0.448,0.01-0.944,0.043-1.487,0.096v-2.729c0.541,0.053,1.036,0.081,1.487,0.081c0.452,0,0.947,0,1.488,0h14.088
		c-0.055,0.357-0.087,0.707-0.096,1.039c-0.007,0.332-0.012,0.674-0.012,1.014v4.056C148.552,18.614,148.559,19.039,148.578,19.471z
		 M137.574-0.048h-3.864l0.078,7.002h1.296c0.128,0,0.281,0,0.46,0c0.181,0,0.37,0,0.57,0c0.214,0,0.436-0.002,0.662-0.012
		c0.224-0.007,0.463-0.017,0.717-0.017L137.574-0.048z M148.552,11.035h-2.921V-0.803c0-0.451-0.01-0.902-0.025-1.353
		c-0.021-0.452-0.056-0.91-0.108-1.379h3.163c-0.053,0.47-0.086,0.928-0.094,1.379c-0.008,0.448-0.013,0.902-0.013,1.353v11.838
		H148.552z"/>
	<path d="M155.959,17.633c-0.702,0-1.392,0.005-2.068,0.016c-0.676,0.007-1.363,0.04-2.068,0.093v-2.755
		c0.702,0.053,1.393,0.086,2.068,0.096c0.677,0.007,1.366,0.013,2.068,0.013h14.329c0.702,0,1.391-0.003,2.068-0.013
		c0.677-0.01,1.365-0.043,2.07-0.096v2.755c-0.702-0.051-1.394-0.083-2.07-0.093c-0.677-0.011-1.366-0.016-2.068-0.016H155.959z
		 M165.463,2.576c0.514,0.953,1.186,1.837,2.013,2.648c0.81,0.814,1.749,1.516,2.813,2.112c1.064,0.595,2.144,1.025,3.243,1.297
		c-0.36,0.361-0.717,0.735-1.067,1.121c-0.352,0.39-0.644,0.734-0.878,1.042c-0.757-0.232-1.55-0.564-2.38-1
		c-0.827-0.433-1.632-0.944-2.407-1.54c-0.773-0.595-1.487-1.249-2.134-1.96c-0.648-0.712-1.172-1.465-1.569-2.261
		c-0.38,0.758-0.845,1.462-1.392,2.111c-0.551,0.646-1.157,1.242-1.826,1.786c-0.772,0.646-1.605,1.216-2.487,1.702
		c-0.886,0.488-1.785,0.883-2.704,1.19c-0.27-0.293-0.579-0.632-0.93-1.019c-0.354-0.388-0.737-0.8-1.151-1.232
		c1.19-0.323,2.321-0.774,3.393-1.351c1.072-0.575,2.016-1.26,2.826-2.053c0.811-0.777,1.462-1.632,1.962-2.569
		c0.493-0.939,0.742-1.965,0.742-3.082c0-0.344-0.008-0.711-0.025-1.108c-0.017-0.396-0.047-0.775-0.082-1.137h3.378
		c-0.055,0.344-0.085,0.721-0.095,1.137c-0.009,0.414-0.014,0.786-0.014,1.108C164.69,0.601,164.948,1.617,165.463,2.576z"/>
</g>
<g>
	<path fill="#1B61AE" d="M-74.578,26.795V-6.079h23.621l0.049,6.011h-17.141v7.09l16.248,0.049v5.918h-16.248v7.841h17.468
		l0.049,6.008L-74.578,26.795z"/>
	<path fill="#1B61AE" d="M-18.084,15.195c-0.595,2.849-2.107,5.642-4.532,8.38c-2.425,2.742-5.832,4.112-10.215,4.112
		c-4.728,0-8.451-1.621-11.176-4.86c-2.723-3.242-4.086-7.428-4.086-12.561c0-5.103,1.363-9.251,4.086-12.444
		c2.725-3.192,6.448-4.79,11.176-4.79c4.634,0,8.118,1.384,10.448,4.155c2.332,2.772,3.734,5.411,4.205,7.916l-6.951-0.049
		c-0.377-1.379-1.145-2.725-2.3-4.039c-1.158-1.313-2.881-1.974-5.167-1.974c-2.693,0-4.811,1.028-6.362,3.079
		c-1.548,2.049-2.323,4.765-2.323,8.146c0,3.381,0.775,6.129,2.323,8.24c1.551,2.115,3.672,3.172,6.362,3.172
		c2.19,0,3.907-0.705,5.141-2.114c1.237-1.408,2.074-2.848,2.514-4.319L-18.084,15.195z"/>
	<path fill="#1B61AE" d="M10.397-2.18c2.802,3.193,4.204,7.341,4.204,12.443c0,5.135-1.4,9.321-4.204,12.562
		c-2.802,3.238-6.534,4.86-11.199,4.86c-4.665,0-8.385-1.622-11.155-4.86c-2.767-3.242-4.152-7.427-4.152-12.562
		c0-5.102,1.385-9.25,4.152-12.443c2.77-3.192,6.49-4.79,11.155-4.79C3.863-6.972,7.592-5.372,10.397-2.18z M5.332,18.22
		c1.504-2.084,2.255-4.731,2.255-7.954c0-3.191-0.751-5.805-2.255-7.842C3.825,0.39,1.783-0.631-0.8-0.631
		c-2.585,0-4.597,1.021-6.041,3.055c-1.444,2.038-2.167,4.651-2.167,7.842c0,3.225,0.723,5.87,2.167,7.954
		c1.439,2.081,3.456,3.125,6.041,3.125C1.781,21.344,3.825,20.302,5.332,18.22z"/>
	<g>
		<g>
			<defs>
				<path id="SVGID_1_" d="M10.397-2.18c2.802,3.193,4.204,7.341,4.204,12.443c0,5.135-1.4,9.321-4.204,12.562
					c-2.802,3.238-6.534,4.86-11.199,4.86c-4.665,0-8.385-1.622-11.155-4.86c-2.767-3.242-4.152-7.427-4.152-12.562
					c0-5.102,1.385-9.25,4.152-12.443c2.77-3.192,6.49-4.79,11.155-4.79C3.863-6.972,7.592-5.372,10.397-2.18z M5.332,18.22
					c1.504-2.084,2.255-4.731,2.255-7.954c0-3.191-0.751-5.805-2.255-7.842C3.825,0.39,1.783-0.631-0.8-0.631
					c-2.585,0-4.597,1.021-6.041,3.055c-1.444,2.038-2.167,4.651-2.167,7.842c0,3.225,0.723,5.87,2.167,7.954
					c1.439,2.081,3.456,3.125,6.041,3.125C1.781,21.344,3.825,20.302,5.332,18.22z"/>
			</defs>
			<clipPath id="SVGID_2_">
				<use xlink:href="#SVGID_1_"  overflow="visible"/>
			</clipPath>
			
				<linearGradient id="SVGID_3_" gradientUnits="userSpaceOnUse" x1="-444.2957" y1="789.2595" x2="-329.2522" y2="789.2595" gradientTransform="matrix(-0.998 -0.0635 -0.0635 0.998 -378.0417 -820.0366)">
				<stop  offset="0" style="stop-color:#FFFFFF"/>
				<stop  offset="0.0584" style="stop-color:#ECF5FB"/>
				<stop  offset="0.2326" style="stop-color:#B9DBF0"/>
				<stop  offset="0.4041" style="stop-color:#8FC4E7"/>
				<stop  offset="0.5697" style="stop-color:#6EB3E0"/>
				<stop  offset="0.7275" style="stop-color:#56A7DB"/>
				<stop  offset="0.8746" style="stop-color:#48A0D8"/>
				<stop  offset="1" style="stop-color:#439DD7"/>
			</linearGradient>
			<path opacity="0.2" clip-path="url(#SVGID_2_)" fill="url(#SVGID_3_)" enable-background="new    " d="M-99.931-5.714
				c0,0,68.928-36.801,102.199-5.834C35.538,19.419-9.052,10.637-9.052,10.637L-99.931-5.714z"/>
		</g>
	</g>
	<g>
		<g>
			<defs>
				<path id="SVGID_4_" d="M-18.084,15.195c-0.595,2.849-2.107,5.642-4.532,8.38c-2.425,2.742-5.832,4.112-10.215,4.112
					c-4.728,0-8.451-1.621-11.176-4.86c-2.723-3.242-4.086-7.428-4.086-12.561c0-5.103,1.363-9.251,4.086-12.444
					c2.725-3.192,6.448-4.79,11.176-4.79c4.634,0,8.118,1.384,10.448,4.155c2.332,2.772,3.734,5.411,4.205,7.916l-6.951-0.049
					c-0.377-1.379-1.145-2.725-2.3-4.039c-1.158-1.313-2.881-1.974-5.167-1.974c-2.693,0-4.811,1.028-6.362,3.079
					c-1.548,2.049-2.323,4.765-2.323,8.146c0,3.381,0.775,6.129,2.323,8.24c1.551,2.115,3.672,3.172,6.362,3.172
					c2.19,0,3.907-0.705,5.141-2.114c1.237-1.408,2.074-2.848,2.514-4.319L-18.084,15.195z"/>
			</defs>
			<clipPath id="SVGID_5_">
				<use xlink:href="#SVGID_4_"  overflow="visible"/>
			</clipPath>
			
				<linearGradient id="SVGID_6_" gradientUnits="userSpaceOnUse" x1="-444.2957" y1="789.2595" x2="-329.2522" y2="789.2595" gradientTransform="matrix(-0.998 -0.0635 -0.0635 0.998 -378.0417 -820.0366)">
				<stop  offset="0" style="stop-color:#FFFFFF"/>
				<stop  offset="0.0584" style="stop-color:#ECF5FB"/>
				<stop  offset="0.2326" style="stop-color:#B9DBF0"/>
				<stop  offset="0.4041" style="stop-color:#8FC4E7"/>
				<stop  offset="0.5697" style="stop-color:#6EB3E0"/>
				<stop  offset="0.7275" style="stop-color:#56A7DB"/>
				<stop  offset="0.8746" style="stop-color:#48A0D8"/>
				<stop  offset="1" style="stop-color:#439DD7"/>
			</linearGradient>
			<path opacity="0.2" clip-path="url(#SVGID_5_)" fill="url(#SVGID_6_)" enable-background="new    " d="M-99.931-5.714
				c0,0,68.928-36.801,102.199-5.834C35.538,19.419-9.052,10.637-9.052,10.637L-99.931-5.714z"/>
		</g>
	</g>
	<g>
		<g>
			<defs>
				<polygon id="SVGID_7_" points="-74.578,26.795 -74.578,-6.079 -50.957,-6.079 -50.908,-0.068 -68.049,-0.068 -68.049,7.022 
					-51.802,7.071 -51.802,12.989 -68.049,12.989 -68.049,20.83 -50.581,20.83 -50.532,26.838 				"/>
			</defs>
			<clipPath id="SVGID_8_">
				<use xlink:href="#SVGID_7_"  overflow="visible"/>
			</clipPath>
			
				<linearGradient id="SVGID_9_" gradientUnits="userSpaceOnUse" x1="-444.2957" y1="789.2595" x2="-329.2522" y2="789.2595" gradientTransform="matrix(-0.998 -0.0635 -0.0635 0.998 -378.0417 -820.0366)">
				<stop  offset="0" style="stop-color:#FFFFFF"/>
				<stop  offset="0.0584" style="stop-color:#ECF5FB"/>
				<stop  offset="0.2326" style="stop-color:#B9DBF0"/>
				<stop  offset="0.4041" style="stop-color:#8FC4E7"/>
				<stop  offset="0.5697" style="stop-color:#6EB3E0"/>
				<stop  offset="0.7275" style="stop-color:#56A7DB"/>
				<stop  offset="0.8746" style="stop-color:#48A0D8"/>
				<stop  offset="1" style="stop-color:#439DD7"/>
			</linearGradient>
			<path opacity="0.2" clip-path="url(#SVGID_8_)" fill="url(#SVGID_9_)" enable-background="new    " d="M-99.931-5.714
				c0,0,68.928-36.801,102.199-5.834C35.538,19.419-9.052,10.637-9.052,10.637L-99.931-5.714z"/>
		</g>
	</g>
</g>
<rect x="23.262" y="-10.976" fill="none" stroke="#04253A" stroke-width="0.3" stroke-miterlimit="10" width="157.503" height="40.982"/>
<g>
	
		<rect x="21.454" y="-12.783" fill="none" stroke="#04253A" stroke-width="0.3" stroke-miterlimit="10" width="3.618" height="3.616"/>
	
		<rect x="21.454" y="28.196" fill="none" stroke="#04253A" stroke-width="0.3" stroke-miterlimit="10" width="3.618" height="3.615"/>
</g>
<g>
	
		<rect x="100.203" y="-12.783" fill="none" stroke="#04253A" stroke-width="0.3" stroke-miterlimit="10" width="3.619" height="3.616"/>
	
		<rect x="100.203" y="28.196" fill="none" stroke="#04253A" stroke-width="0.3" stroke-miterlimit="10" width="3.619" height="3.615"/>
</g>
<g>
	
		<rect x="178.957" y="-12.783" fill="none" stroke="#04253A" stroke-width="0.3" stroke-miterlimit="10" width="3.615" height="3.616"/>
	
		<rect x="178.957" y="28.196" fill="none" stroke="#04253A" stroke-width="0.3" stroke-miterlimit="10" width="3.615" height="3.615"/>
</g>
</svg>
