<?xml version="1.0" encoding="utf-8"?>
<!-- Generator: Adobe Illustrator 16.0.0, SVG Export Plug-In . SVG Version: 6.00 Build 0)  -->
<!DOCTYPE svg PUBLIC "-//W3C//DTD SVG 1.1//EN" "http://www.w3.org/Graphics/SVG/1.1/DTD/svg11.dtd">
<svg version="1.1" id="레이어_1" xmlns="http://www.w3.org/2000/svg" xmlns:xlink="http://www.w3.org/1999/xlink" x="0px"
	 y="0px" width="108.144px" height="19.029px" viewBox="0 0 108.144 19.029" enable-background="new 0 0 108.144 19.029"
	 xml:space="preserve">
<g>
	<path d="M48.733,8.667c-0.061,1.09-0.289,1.932-0.687,2.526c-0.397,0.594-0.902,0.892-1.515,0.892c-0.644,0-1.17-0.339-1.578-1.016
		c-0.409-0.677-0.614-1.618-0.614-2.822c0-0.59,0.053-1.124,0.159-1.601c0.106-0.477,0.253-0.882,0.443-1.214
		c0.197-0.333,0.43-0.588,0.698-0.767c0.269-0.177,0.565-0.267,0.892-0.267c0.583,0,1.067,0.274,1.453,0.823
		c0.386,0.549,0.625,1.3,0.716,2.254h1.033V5.726c0-0.25-0.004-0.501-0.012-0.755c-0.008-0.253-0.019-0.509-0.034-0.766h1.272
		c-0.023,0.257-0.034,0.513-0.034,0.766c0,0.254,0,0.506,0,0.755v6.449c0,0.257,0,0.513,0,0.767s0.011,0.505,0.034,0.755h-1.272
		c0.016-0.25,0.026-0.501,0.034-0.755c0.007-0.253,0.012-0.509,0.012-0.767V8.667H48.733z M45.577,9.313
		c0.045,0.333,0.109,0.621,0.193,0.863c0.091,0.242,0.201,0.431,0.33,0.567c0.128,0.137,0.276,0.205,0.443,0.205
		c0.159,0,0.3-0.068,0.425-0.205c0.125-0.136,0.233-0.325,0.324-0.567s0.161-0.53,0.21-0.863c0.049-0.333,0.074-0.692,0.074-1.078
		c0-0.386-0.025-0.744-0.074-1.073c-0.049-0.33-0.119-0.615-0.21-0.857s-0.198-0.434-0.324-0.574c-0.125-0.14-0.267-0.21-0.425-0.21
		c-0.167,0-0.314,0.07-0.443,0.21c-0.129,0.14-0.235,0.332-0.318,0.574c-0.091,0.242-0.159,0.527-0.205,0.857
		c-0.045,0.329-0.068,0.687-0.068,1.073C45.509,8.621,45.532,8.98,45.577,9.313z M52.906,13.417c0.003,0.254,0.017,0.505,0.04,0.755
		h-1.26c0.023-0.25,0.038-0.501,0.045-0.755c0.007-0.253,0.011-0.509,0.011-0.766V5.555c0-0.25-0.004-0.501-0.011-0.755
		c-0.008-0.253-0.022-0.509-0.045-0.767h1.26c-0.022,0.257-0.036,0.513-0.04,0.767c-0.004,0.254-0.005,0.505-0.005,0.755v7.096
		C52.901,12.909,52.902,13.164,52.906,13.417z"/>
	<path d="M57.465,10.381c0-0.159-0.002-0.326-0.006-0.5c-0.004-0.175-0.017-0.341-0.04-0.5h1.339
		c-0.022,0.152-0.036,0.32-0.039,0.505c-0.004,0.186-0.006,0.35-0.006,0.494v1.601h3.247c0.295,0,0.584-0.002,0.869-0.006
		c0.284-0.004,0.573-0.018,0.868-0.04v1.158c-0.295-0.023-0.584-0.036-0.868-0.04c-0.284-0.004-0.573-0.005-0.869-0.005h-6.018
		c-0.295,0-0.584,0.001-0.869,0.005c-0.284,0.004-0.573,0.017-0.869,0.04v-1.158c0.295,0.022,0.585,0.036,0.869,0.04
		c0.284,0.004,0.574,0.006,0.869,0.006h1.521V10.381z M55.915,5.64c-0.193,0.004-0.407,0.017-0.642,0.04V4.544
		c0.235,0.023,0.448,0.036,0.642,0.04c0.193,0.004,0.41,0.006,0.653,0.006h6.006c-0.023,0.431-0.055,0.904-0.097,1.419
		c-0.042,0.515-0.093,1.044-0.153,1.59c-0.068,0.537-0.14,1.071-0.216,1.601s-0.155,1.022-0.238,1.476h-1.204
		c0.03-0.159,0.063-0.35,0.097-0.573c0.034-0.223,0.07-0.453,0.107-0.687c0.03-0.235,0.063-0.467,0.097-0.698
		c0.034-0.231,0.063-0.437,0.085-0.619c-0.493,0.045-1.067,0.076-1.726,0.09c-0.659,0.016-1.291,0.027-1.896,0.035
		c-0.605,0.007-1.13,0.009-1.572,0.005c-0.443-0.004-0.687-0.005-0.732-0.005V7.167c0.022,0,0.105,0.002,0.25,0.006
		s0.326,0.001,0.545-0.006c0.227,0,0.484,0,0.772,0c0.288,0,0.59-0.003,0.909-0.011c0.318,0,0.642-0.003,0.971-0.011
		c0.329-0.008,0.653-0.016,0.971-0.023c0.311-0.008,0.605-0.017,0.886-0.028c0.28-0.011,0.526-0.028,0.738-0.051
		c0.023-0.227,0.043-0.463,0.063-0.709c0.019-0.247,0.032-0.479,0.04-0.699h-4.701C56.325,5.635,56.108,5.637,55.915,5.64z"/>
	<path d="M72.179,11.834c0.295,0,0.585-0.002,0.869-0.006c0.284-0.003,0.574-0.017,0.869-0.04v1.146
		c-0.295-0.022-0.585-0.036-0.869-0.04c-0.284-0.004-0.573-0.005-0.869-0.005h-6.018c-0.295,0-0.584,0.001-0.869,0.005
		c-0.284,0.003-0.573,0.017-0.868,0.04v-1.146c0.295,0.022,0.584,0.036,0.868,0.04c0.284,0.004,0.573,0.006,0.869,0.006h4.292
		c0.136-0.409,0.269-0.869,0.397-1.379c0.129-0.511,0.242-1.035,0.34-1.573c0.099-0.537,0.18-1.071,0.244-1.601
		s0.097-1.019,0.097-1.465h-4.814c-0.243,0-0.46,0.002-0.653,0.006c-0.193,0.004-0.407,0.017-0.642,0.04V4.704
		c0.235,0.023,0.449,0.036,0.642,0.04c0.193,0.004,0.41,0.006,0.653,0.006h6.085c-0.007,0.635-0.045,1.277-0.114,1.924
		c-0.068,0.647-0.151,1.277-0.25,1.891c-0.106,0.613-0.223,1.198-0.352,1.754c-0.128,0.556-0.261,1.062-0.397,1.516H72.179z"/>
	<path d="M79.094,8.711h-2.521v1.999l1.033-0.012c0.174,0,0.362-0.005,0.562-0.017c0.201-0.011,0.399-0.024,0.596-0.039
		c0.189-0.023,0.369-0.046,0.539-0.068c0.171-0.022,0.309-0.045,0.415-0.068v1.033c-0.106,0.015-0.246,0.036-0.42,0.063
		c-0.174,0.026-0.371,0.051-0.59,0.074c-0.228,0.022-0.473,0.043-0.738,0.063c-0.265,0.019-0.545,0.028-0.84,0.028l-1.76,0.011
		v-4.11h2.521v-2.01h-1.737c-0.144,0-0.277,0.002-0.397,0.006c-0.121,0.004-0.25,0.017-0.386,0.04V4.544
		c0.137,0.023,0.265,0.036,0.386,0.04c0.121,0.004,0.253,0.006,0.397,0.006h2.986c-0.023,0.174-0.036,0.339-0.04,0.494
		c-0.004,0.155-0.006,0.316-0.006,0.482V8.711z M82.33,7.462V5.555c0-0.25-0.004-0.501-0.012-0.755
		c-0.007-0.253-0.022-0.509-0.045-0.767h1.261c-0.023,0.257-0.036,0.513-0.04,0.767c-0.004,0.254-0.006,0.505-0.006,0.755v7.096
		c0,0.257,0.002,0.513,0.006,0.766c0.004,0.254,0.017,0.505,0.04,0.755h-1.261c0.023-0.25,0.038-0.501,0.045-0.755
		c0.008-0.253,0.012-0.509,0.012-0.766V8.689h-1.045v3.485c0,0.257,0,0.513,0,0.767s0.012,0.505,0.035,0.755h-1.26
		c0.015-0.25,0.026-0.501,0.034-0.755c0.007-0.253,0.011-0.509,0.011-0.767V5.726c0-0.25-0.003-0.501-0.011-0.755
		c-0.008-0.253-0.019-0.509-0.034-0.766h1.26c-0.023,0.257-0.035,0.513-0.035,0.766c0,0.254,0,0.506,0,0.755v1.737H82.33z"/>
	<path d="M91.112,8.297c0.269-0.027,0.494-0.055,0.676-0.085v1.044c-0.273,0.053-0.613,0.095-1.022,0.125s-0.855,0.057-1.34,0.08
		c-0.484,0.015-0.993,0.027-1.527,0.034c-0.534,0.008-1.058,0.012-1.573,0.012c-0.205,0-0.394,0.002-0.568,0.005
		c-0.174,0.004-0.363,0.018-0.567,0.04V8.417c0.204,0.022,0.393,0.034,0.567,0.034s0.363,0,0.568,0h0.011l-0.034-2.952
		c-0.159,0-0.301,0.001-0.426,0.005c-0.125,0.004-0.268,0.017-0.426,0.04V4.397c0.158,0.023,0.306,0.036,0.442,0.04
		c0.137,0.004,0.288,0.006,0.454,0.006h3.974c0.159,0,0.307-0.002,0.443-0.006c0.136-0.003,0.288-0.017,0.454-0.04v1.147
		c-0.167-0.023-0.318-0.036-0.454-0.04c-0.136-0.004-0.284-0.005-0.443-0.005h-0.045l-0.034,2.873
		C90.554,8.348,90.843,8.324,91.112,8.297z M93.718,13.696c0.007,0.182,0.022,0.356,0.045,0.522h-1.328
		c0.023-0.159,0.036-0.333,0.04-0.522c0.004-0.189,0.005-0.367,0.005-0.533v-1.499h-4.644c-0.227,0-0.436,0.002-0.625,0.006
		c-0.189,0.004-0.397,0.017-0.625,0.04v-1.147c0.227,0.023,0.435,0.034,0.625,0.034c0.189,0,0.397,0,0.625,0h5.916
		c-0.023,0.151-0.036,0.297-0.04,0.437c-0.003,0.14-0.005,0.283-0.005,0.426v1.703C93.707,13.336,93.71,13.514,93.718,13.696z
		 M89.096,5.499h-1.623l0.034,2.94h0.544c0.053,0,0.118,0,0.193,0s0.155,0,0.239,0c0.09,0,0.183-0.001,0.278-0.005
		c0.094-0.003,0.195-0.006,0.301-0.006L89.096,5.499z M93.707,10.153H92.48V5.181c0-0.189-0.004-0.378-0.011-0.568
		c-0.008-0.189-0.023-0.382-0.045-0.579h1.329c-0.023,0.197-0.036,0.39-0.04,0.579c-0.003,0.189-0.005,0.379-0.005,0.568V10.153z"/>
	<path d="M96.817,12.924c-0.295,0-0.584,0.002-0.868,0.006c-0.284,0.003-0.573,0.017-0.869,0.04v-1.158
		c0.295,0.023,0.585,0.036,0.869,0.04c0.284,0.003,0.573,0.006,0.868,0.006h6.018c0.295,0,0.584-0.002,0.869-0.006
		c0.284-0.004,0.573-0.017,0.869-0.04v1.158c-0.295-0.022-0.585-0.036-0.869-0.04c-0.284-0.004-0.574-0.006-0.869-0.006H96.817z
		 M100.808,6.6c0.216,0.401,0.498,0.772,0.846,1.113c0.34,0.341,0.734,0.636,1.181,0.886s0.9,0.431,1.362,0.545
		c-0.151,0.152-0.301,0.309-0.448,0.471c-0.148,0.163-0.271,0.309-0.369,0.438c-0.318-0.098-0.651-0.238-0.999-0.42
		c-0.348-0.182-0.686-0.397-1.011-0.647c-0.325-0.25-0.625-0.524-0.897-0.823s-0.492-0.615-0.659-0.949
		c-0.159,0.318-0.354,0.614-0.584,0.886c-0.231,0.272-0.486,0.522-0.767,0.75c-0.325,0.272-0.674,0.511-1.044,0.715
		c-0.372,0.205-0.75,0.371-1.136,0.5C96.17,9.942,96.04,9.8,95.892,9.637c-0.148-0.163-0.309-0.335-0.483-0.517
		c0.5-0.136,0.975-0.325,1.425-0.567c0.45-0.242,0.846-0.53,1.186-0.863c0.341-0.326,0.615-0.685,0.824-1.079
		c0.208-0.394,0.312-0.825,0.312-1.294c0-0.144-0.003-0.299-0.011-0.466c-0.007-0.166-0.019-0.325-0.034-0.477h1.419
		c-0.023,0.144-0.036,0.303-0.04,0.477c-0.004,0.174-0.006,0.33-0.006,0.466C100.484,5.771,100.593,6.198,100.808,6.6z"/>
</g>
<g>
	<path fill="#1B61AE" d="M0,16.771V2.966h9.92l0.02,2.524H2.742v2.978l6.823,0.02v2.485H2.742v3.293h7.336l0.02,2.524L0,16.771z"/>
	<path fill="#1B61AE" d="M23.725,11.9c-0.25,1.196-0.884,2.369-1.903,3.52c-1.019,1.151-2.449,1.726-4.29,1.726
		c-1.985,0-3.549-0.68-4.693-2.041c-1.144-1.361-1.716-3.119-1.716-5.275c0-2.143,0.572-3.885,1.716-5.226
		c1.144-1.341,2.708-2.011,4.693-2.011c1.946,0,3.409,0.581,4.388,1.745s1.568,2.272,1.765,3.324l-2.919-0.021
		c-0.158-0.579-0.48-1.144-0.965-1.696c-0.487-0.552-1.21-0.829-2.17-0.829c-1.131,0-2.021,0.432-2.672,1.293
		c-0.651,0.86-0.976,2.001-0.976,3.421c0,1.42,0.325,2.574,0.976,3.461c0.651,0.888,1.542,1.332,2.672,1.332
		c0.92,0,1.64-0.296,2.159-0.888c0.519-0.592,0.871-1.196,1.055-1.814L23.725,11.9z"/>
	<path fill="#1B61AE" d="M35.686,4.603c1.177,1.341,1.766,3.083,1.766,5.226c0,2.156-0.588,3.915-1.766,5.275
		c-1.176,1.361-2.744,2.041-4.703,2.041c-1.959,0-3.521-0.68-4.684-2.041s-1.745-3.119-1.745-5.275c0-2.143,0.582-3.885,1.745-5.226
		s2.725-2.011,4.684-2.011C32.942,2.591,34.509,3.262,35.686,4.603z M33.559,13.171c0.632-0.875,0.948-1.988,0.948-3.341
		c0-1.34-0.316-2.438-0.948-3.293c-0.632-0.855-1.49-1.283-2.575-1.283c-1.086,0-1.931,0.428-2.537,1.283
		c-0.606,0.855-0.91,1.953-0.91,3.293c0,1.354,0.304,2.466,0.91,3.341c0.605,0.874,1.451,1.312,2.537,1.312
		C32.068,14.482,32.927,14.045,33.559,13.171z"/>
	<g>
		<defs>
			<path id="SVGID_1_" d="M35.686,4.603c1.177,1.341,1.766,3.083,1.766,5.226c0,2.156-0.588,3.915-1.766,5.275
				c-1.176,1.361-2.744,2.041-4.703,2.041c-1.959,0-3.521-0.68-4.684-2.041s-1.745-3.119-1.745-5.275
				c0-2.143,0.582-3.885,1.745-5.226s2.725-2.011,4.684-2.011C32.942,2.591,34.509,3.262,35.686,4.603z M33.559,13.171
				c0.632-0.875,0.948-1.988,0.948-3.341c0-1.34-0.316-2.438-0.948-3.293c-0.632-0.855-1.49-1.283-2.575-1.283
				c-1.086,0-1.931,0.428-2.537,1.283c-0.606,0.855-0.91,1.953-0.91,3.293c0,1.354,0.304,2.466,0.91,3.341
				c0.605,0.874,1.451,1.312,2.537,1.312C32.068,14.482,32.927,14.045,33.559,13.171z"/>
		</defs>
		<clipPath id="SVGID_2_">
			<use xlink:href="#SVGID_1_"  overflow="visible"/>
		</clipPath>
		
			<linearGradient id="SVGID_3_" gradientUnits="userSpaceOnUse" x1="45.3071" y1="29.8721" x2="93.6221" y2="29.8721" gradientTransform="matrix(-0.998 -0.0635 0.0635 -0.998 81.042 36.4664)">
			<stop  offset="0" style="stop-color:#FFFFFF"/>
			<stop  offset="0.0584" style="stop-color:#ECF5FB"/>
			<stop  offset="0.2326" style="stop-color:#B9DBF0"/>
			<stop  offset="0.4041" style="stop-color:#8FC4E7"/>
			<stop  offset="0.5697" style="stop-color:#6EB3E0"/>
			<stop  offset="0.7275" style="stop-color:#56A7DB"/>
			<stop  offset="0.8746" style="stop-color:#48A0D8"/>
			<stop  offset="1" style="stop-color:#439DD7"/>
		</linearGradient>
		<path opacity="0.2" clip-path="url(#SVGID_2_)" fill="url(#SVGID_3_)" d="M-10.648,3.119c0,0,28.948-15.455,42.92-2.45
			c13.973,13.005-4.754,9.317-4.754,9.317L-10.648,3.119z"/>
	</g>
	<g>
		<defs>
			<path id="SVGID_4_" d="M23.725,11.9c-0.25,1.196-0.884,2.369-1.903,3.52c-1.019,1.151-2.449,1.726-4.29,1.726
				c-1.985,0-3.549-0.68-4.693-2.041c-1.144-1.361-1.716-3.119-1.716-5.275c0-2.143,0.572-3.885,1.716-5.226
				c1.144-1.341,2.708-2.011,4.693-2.011c1.946,0,3.409,0.581,4.388,1.745s1.568,2.272,1.765,3.324l-2.919-0.021
				c-0.158-0.579-0.48-1.144-0.965-1.696c-0.487-0.552-1.21-0.829-2.17-0.829c-1.131,0-2.021,0.432-2.672,1.293
				c-0.651,0.86-0.976,2.001-0.976,3.421c0,1.42,0.325,2.574,0.976,3.461c0.651,0.888,1.542,1.332,2.672,1.332
				c0.92,0,1.64-0.296,2.159-0.888c0.519-0.592,0.871-1.196,1.055-1.814L23.725,11.9z"/>
		</defs>
		<clipPath id="SVGID_5_">
			<use xlink:href="#SVGID_4_"  overflow="visible"/>
		</clipPath>
		
			<linearGradient id="SVGID_6_" gradientUnits="userSpaceOnUse" x1="45.3071" y1="29.8721" x2="93.6221" y2="29.8721" gradientTransform="matrix(-0.998 -0.0635 0.0635 -0.998 81.042 36.4664)">
			<stop  offset="0" style="stop-color:#FFFFFF"/>
			<stop  offset="0.0584" style="stop-color:#ECF5FB"/>
			<stop  offset="0.2326" style="stop-color:#B9DBF0"/>
			<stop  offset="0.4041" style="stop-color:#8FC4E7"/>
			<stop  offset="0.5697" style="stop-color:#6EB3E0"/>
			<stop  offset="0.7275" style="stop-color:#56A7DB"/>
			<stop  offset="0.8746" style="stop-color:#48A0D8"/>
			<stop  offset="1" style="stop-color:#439DD7"/>
		</linearGradient>
		<path opacity="0.2" clip-path="url(#SVGID_5_)" fill="url(#SVGID_6_)" d="M-10.648,3.119c0,0,28.948-15.455,42.92-2.45
			c13.973,13.005-4.754,9.317-4.754,9.317L-10.648,3.119z"/>
	</g>
	<g>
		<defs>
			<path id="SVGID_7_" d="M0,16.771V2.966h9.92l0.02,2.524H2.742v2.978l6.823,0.02v2.485H2.742v3.293h7.336l0.02,2.524L0,16.771z"/>
		</defs>
		<clipPath id="SVGID_8_">
			<use xlink:href="#SVGID_7_"  overflow="visible"/>
		</clipPath>
		
			<linearGradient id="SVGID_9_" gradientUnits="userSpaceOnUse" x1="45.3071" y1="29.8721" x2="93.6221" y2="29.8721" gradientTransform="matrix(-0.998 -0.0635 0.0635 -0.998 81.042 36.4664)">
			<stop  offset="0" style="stop-color:#FFFFFF"/>
			<stop  offset="0.0584" style="stop-color:#ECF5FB"/>
			<stop  offset="0.2326" style="stop-color:#B9DBF0"/>
			<stop  offset="0.4041" style="stop-color:#8FC4E7"/>
			<stop  offset="0.5697" style="stop-color:#6EB3E0"/>
			<stop  offset="0.7275" style="stop-color:#56A7DB"/>
			<stop  offset="0.8746" style="stop-color:#48A0D8"/>
			<stop  offset="1" style="stop-color:#439DD7"/>
		</linearGradient>
		<path opacity="0.2" clip-path="url(#SVGID_8_)" fill="url(#SVGID_9_)" d="M-10.648,3.119c0,0,28.948-15.455,42.92-2.45
			c13.973,13.005-4.754,9.317-4.754,9.317L-10.648,3.119z"/>
	</g>
</g>
<rect x="41.09" y="0.909" fill="none" stroke="#025EA2" stroke-width="0.3" stroke-miterlimit="10" width="66.145" height="17.211"/>
<g>
	<rect x="40.33" y="0.15" fill="none" stroke="#025EA2" stroke-width="0.3" stroke-miterlimit="10" width="1.519" height="1.519"/>
	<rect x="40.33" y="17.36" fill="none" stroke="#025EA2" stroke-width="0.3" stroke-miterlimit="10" width="1.519" height="1.519"/>
</g>
<g>
	<rect x="73.402" y="0.15" fill="none" stroke="#025EA2" stroke-width="0.3" stroke-miterlimit="10" width="1.52" height="1.519"/>
	<rect x="73.402" y="17.36" fill="none" stroke="#025EA2" stroke-width="0.3" stroke-miterlimit="10" width="1.52" height="1.519"/>
</g>
<g>
	
		<rect x="106.475" y="0.15" fill="none" stroke="#025EA2" stroke-width="0.3" stroke-miterlimit="10" width="1.519" height="1.519"/>
	
		<rect x="106.475" y="17.36" fill="none" stroke="#025EA2" stroke-width="0.3" stroke-miterlimit="10" width="1.519" height="1.519"/>
</g>
</svg>
