<?xml version="1.0" encoding="utf-8"?>
<!-- Generator: Adobe Illustrator 16.0.0, SVG Export Plug-In . SVG Version: 6.00 Build 0)  -->
<!DOCTYPE svg PUBLIC "-//W3C//DTD SVG 1.1//EN" "http://www.w3.org/Graphics/SVG/1.1/DTD/svg11.dtd">
<svg version="1.1" id="레이어_1" xmlns="http://www.w3.org/2000/svg" xmlns:xlink="http://www.w3.org/1999/xlink" x="0px"
	 y="0px" width="371.404px" height="45.773px" viewBox="0 0 371.404 45.773" enable-background="new 0 0 371.404 45.773"
	 xml:space="preserve">
<g>
	<g>
		<path d="M147.632,38.509V20h-3.749v9.119c0,1.391-0.245,2.66-0.733,3.806c-0.489,1.146-1.149,2.138-1.982,2.976
			c-0.833,0.837-1.81,1.481-2.93,1.932c-1.121,0.45-2.327,0.676-3.62,0.676c-1.293,0-2.5-0.226-3.62-0.676
			c-1.12-0.451-2.097-1.095-2.93-1.932c-0.833-0.837-1.494-1.83-1.982-2.976c-0.489-1.146-0.732-2.415-0.732-3.806V11.344
			c0-1.391,0.244-2.66,0.732-3.806c0.488-1.146,1.148-2.138,1.982-2.976c0.833-0.837,1.81-1.481,2.93-1.932
			c1.121-0.45,2.327-0.676,3.62-0.676c1.292,0,2.499,0.226,3.62,0.676c1.12,0.451,2.097,1.095,2.93,1.932
			c0.833,0.837,1.493,1.83,1.982,2.976c0.488,1.146,0.733,2.415,0.733,3.806v3.439h3.749V1.954h5.645v36.555H147.632z
			 M137.85,11.344c0-1.082-0.273-1.983-0.818-2.705c-0.546-0.721-1.351-1.082-2.413-1.082c-1.063,0-1.868,0.361-2.413,1.082
			c-0.546,0.722-0.819,1.623-0.819,2.705v17.774c0,1.082,0.272,1.984,0.819,2.705c0.545,0.721,1.35,1.082,2.413,1.082
			c1.063,0,1.867-0.361,2.413-1.082c0.545-0.721,0.818-1.623,0.818-2.705V11.344z M156.078,38.509V1.954h5.645v36.555H156.078z"/>
		<path d="M201.367,7.016l-2.629,25.89h5.042v5.603h-37.059v-5.603h11.333V25.95h6.291v6.956h7.843l1.164-11.399h-24.261v-5.255
			h24.778l0.948-9.235h-25.726V2.147h32.276V7.016z"/>
		<path d="M233.21,33.447l2.241-25.928h-24.734V2.341h31.198v5.178l-2.241,25.928h5.473v5.062h-37.059v-5.062H233.21z"/>
		<path d="M265.874,38.315h-15.771V17.488h9.825V7.403h-9.825V2.147h15.944v20.943h-9.825v10.163h9.652V38.315z M269.881,38.509
			V1.954h5.86v14.684h4.18V1.954h5.904v36.555h-5.904V21.854h-4.18v16.654H269.881z"/>
		<path d="M291.686,2.147h22.968v4.985h-3.318V17.14h3.318v4.985h-22.968V17.14h3.103V7.132h-3.103V2.147z M326.374,29.892
			l-1.638,8.617h-6.464l1.681-8.617h-26.285v-4.714h26.285V1.954h6.421V29.892z M300.777,17.14h4.611V7.132h-4.611V17.14z"/>
		<path d="M369.249,33.447v5.062H332.19v-5.062H369.249z M360.243,26.221L350.72,9.219l-9.522,17.002h-7.541l12.97-24.15h8.188
			l12.971,24.15H360.243z"/>
	</g>
	<g>
		<path fill="#1B61AE" d="M0,41.181V1.088h28.81l0.058,7.33H7.962v8.648l19.816,0.059v7.216H7.962v9.564h21.305l0.057,7.331
			L0,41.181z"/>
		<path fill="#1B61AE" d="M68.9,27.033c-0.725,3.475-2.569,6.881-5.527,10.222c-2.959,3.342-7.112,5.013-12.458,5.013
			c-5.765,0-10.308-1.977-13.63-5.928c-3.322-3.953-4.983-9.059-4.983-15.322c0-6.223,1.662-11.282,4.983-15.178
			C40.608,1.948,45.15,0,50.916,0c5.652,0,9.899,1.689,12.743,5.068c2.846,3.379,4.554,6.598,5.127,9.652l-8.477-0.058
			c-0.458-1.681-1.394-3.321-2.805-4.925C56.09,8.133,53.99,7.33,51.203,7.33c-3.284,0-5.871,1.252-7.762,3.753
			c-1.89,2.5-2.833,5.813-2.833,9.936s0.944,7.475,2.833,10.052c1.891,2.576,4.478,3.867,7.762,3.867
			c2.672,0,4.762-0.86,6.271-2.578c1.507-1.719,2.528-3.475,3.064-5.269L68.9,27.033z"/>
		<path fill="#1B61AE" d="M103.638,5.841c3.418,3.896,5.126,8.955,5.126,15.178c0,6.263-1.708,11.369-5.126,15.322
			c-3.417,3.951-7.97,5.928-13.659,5.928c-5.69,0-10.226-1.977-13.603-5.928c-3.378-3.953-5.07-9.059-5.07-15.322
			c0-6.223,1.692-11.282,5.07-15.178C79.753,1.948,84.289,0,89.979,0C95.668,0,100.22,1.948,103.638,5.841z M97.46,30.726
			c1.834-2.54,2.753-5.772,2.753-9.704c0-3.892-0.919-7.08-2.753-9.563c-1.835-2.483-4.327-3.726-7.479-3.726
			c-3.153,0-5.608,1.243-7.366,3.726c-1.762,2.483-2.643,5.672-2.643,9.563c0,3.931,0.881,7.164,2.643,9.704
			c1.758,2.538,4.213,3.81,7.366,3.81C93.133,34.536,95.625,33.264,97.46,30.726z"/>
		<g>
			<defs>
				<path id="SVGID_1_" d="M103.638,5.841c3.418,3.896,5.126,8.955,5.126,15.178c0,6.263-1.708,11.369-5.126,15.322
					c-3.417,3.951-7.97,5.928-13.659,5.928c-5.69,0-10.226-1.977-13.603-5.928c-3.378-3.953-5.07-9.059-5.07-15.322
					c0-6.223,1.692-11.282,5.07-15.178C79.753,1.948,84.289,0,89.979,0C95.668,0,100.22,1.948,103.638,5.841z M97.46,30.726
					c1.834-2.54,2.753-5.772,2.753-9.704c0-3.892-0.919-7.08-2.753-9.563c-1.835-2.483-4.327-3.726-7.479-3.726
					c-3.153,0-5.608,1.243-7.366,3.726c-1.762,2.483-2.643,5.672-2.643,9.563c0,3.931,0.881,7.164,2.643,9.704
					c1.758,2.538,4.213,3.81,7.366,3.81C93.133,34.536,95.625,33.264,97.46,30.726z"/>
			</defs>
			<clipPath id="SVGID_2_">
				<use xlink:href="#SVGID_1_"  overflow="visible"/>
			</clipPath>
			
				<linearGradient id="SVGID_3_" gradientUnits="userSpaceOnUse" x1="219.4214" y1="-37.936" x2="359.7344" y2="-37.936" gradientTransform="matrix(-0.998 -0.0635 0.0635 -0.998 330.944 -20.4796)">
				<stop  offset="0" style="stop-color:#FFFFFF"/>
				<stop  offset="0.0584" style="stop-color:#ECF5FB"/>
				<stop  offset="0.2326" style="stop-color:#B9DBF0"/>
				<stop  offset="0.4041" style="stop-color:#8FC4E7"/>
				<stop  offset="0.5697" style="stop-color:#6EB3E0"/>
				<stop  offset="0.7275" style="stop-color:#56A7DB"/>
				<stop  offset="0.8746" style="stop-color:#48A0D8"/>
				<stop  offset="1" style="stop-color:#439DD7"/>
			</linearGradient>
			<path opacity="0.2" clip-path="url(#SVGID_2_)" fill="url(#SVGID_3_)" d="M-30.924,1.533c0,0,84.069-44.885,124.647-7.117
				c40.579,37.77-13.807,27.06-13.807,27.06L-30.924,1.533z"/>
		</g>
		<g>
			<defs>
				<path id="SVGID_4_" d="M68.9,27.033c-0.725,3.475-2.569,6.881-5.527,10.222c-2.959,3.342-7.112,5.013-12.458,5.013
					c-5.765,0-10.308-1.977-13.63-5.928c-3.322-3.953-4.983-9.059-4.983-15.322c0-6.223,1.662-11.282,4.983-15.178
					C40.608,1.948,45.15,0,50.916,0c5.652,0,9.899,1.689,12.743,5.068c2.846,3.379,4.554,6.598,5.127,9.652l-8.477-0.058
					c-0.458-1.681-1.394-3.321-2.805-4.925C56.09,8.133,53.99,7.33,51.203,7.33c-3.284,0-5.871,1.252-7.762,3.753
					c-1.89,2.5-2.833,5.813-2.833,9.936s0.944,7.475,2.833,10.052c1.891,2.576,4.478,3.867,7.762,3.867
					c2.672,0,4.762-0.86,6.271-2.578c1.507-1.719,2.528-3.475,3.064-5.269L68.9,27.033z"/>
			</defs>
			<clipPath id="SVGID_5_">
				<use xlink:href="#SVGID_4_"  overflow="visible"/>
			</clipPath>
			
				<linearGradient id="SVGID_6_" gradientUnits="userSpaceOnUse" x1="219.4214" y1="-37.936" x2="359.7344" y2="-37.936" gradientTransform="matrix(-0.998 -0.0635 0.0635 -0.998 330.944 -20.4796)">
				<stop  offset="0" style="stop-color:#FFFFFF"/>
				<stop  offset="0.0584" style="stop-color:#ECF5FB"/>
				<stop  offset="0.2326" style="stop-color:#B9DBF0"/>
				<stop  offset="0.4041" style="stop-color:#8FC4E7"/>
				<stop  offset="0.5697" style="stop-color:#6EB3E0"/>
				<stop  offset="0.7275" style="stop-color:#56A7DB"/>
				<stop  offset="0.8746" style="stop-color:#48A0D8"/>
				<stop  offset="1" style="stop-color:#439DD7"/>
			</linearGradient>
			<path opacity="0.2" clip-path="url(#SVGID_5_)" fill="url(#SVGID_6_)" d="M-30.924,1.533c0,0,84.069-44.885,124.647-7.117
				c40.579,37.77-13.807,27.06-13.807,27.06L-30.924,1.533z"/>
		</g>
		<g>
			<defs>
				<path id="SVGID_7_" d="M0,41.181V1.088h28.81l0.058,7.33H7.962v8.648l19.816,0.059v7.216H7.962v9.564h21.305l0.057,7.331
					L0,41.181z"/>
			</defs>
			<clipPath id="SVGID_8_">
				<use xlink:href="#SVGID_7_"  overflow="visible"/>
			</clipPath>
			
				<linearGradient id="SVGID_9_" gradientUnits="userSpaceOnUse" x1="219.4214" y1="-37.936" x2="359.7344" y2="-37.936" gradientTransform="matrix(-0.998 -0.0635 0.0635 -0.998 330.944 -20.4796)">
				<stop  offset="0" style="stop-color:#FFFFFF"/>
				<stop  offset="0.0584" style="stop-color:#ECF5FB"/>
				<stop  offset="0.2326" style="stop-color:#B9DBF0"/>
				<stop  offset="0.4041" style="stop-color:#8FC4E7"/>
				<stop  offset="0.5697" style="stop-color:#6EB3E0"/>
				<stop  offset="0.7275" style="stop-color:#56A7DB"/>
				<stop  offset="0.8746" style="stop-color:#48A0D8"/>
				<stop  offset="1" style="stop-color:#439DD7"/>
			</linearGradient>
			<path opacity="0.2" clip-path="url(#SVGID_8_)" fill="url(#SVGID_9_)" d="M-30.924,1.533c0,0,84.069-44.885,124.647-7.117
				c40.579,37.77-13.807,27.06-13.807,27.06L-30.924,1.533z"/>
		</g>
	</g>
</g>
</svg>
